<svg version="1.2" xmlns="http://www.w3.org/2000/svg" viewBox="0 0 1500 1000" width="1500" height="1000">
	<title>11377211_4741352-ai</title>
	<style>
		tspan { white-space:pre } 
		.s0 { opacity: .3;fill: #006480 } 
		.s1 { fill: #e8776e } 
		.s2 { fill: none;stroke: #ea3364;stroke-miterlimit:10;stroke-width: 1.5 } 
		.s3 { fill: #00ac96 } 
		.s4 { fill: #f3cf68 } 
		.s5 { fill: none;stroke: #924541;stroke-miterlimit:10 } 
		.s6 { fill: #e03b5e } 
		.s7 { fill: none;stroke: #c73154;stroke-miterlimit:10;stroke-width: 2 } 
		.s8 { fill: #924541 } 
		.s9 { fill: #33324f } 
		.s10 { fill: #ffffff } 
		.s11 { fill: none;stroke: #ffffff;stroke-miterlimit:10;stroke-width: .5 } 
		.s12 { fill: none;stroke: #00161e;stroke-miterlimit:10;stroke-width: 2 } 
		.s13 { fill: #f2f0f3 } 
		.s14 { fill: none;stroke: #78a8c6;stroke-miterlimit:10;stroke-width: 2 } 
		.s15 { fill: none;stroke: #924541;stroke-miterlimit:10;stroke-width: 2 } 
		.s16 { fill: none;stroke: #924541;stroke-miterlimit:10;stroke-width: 1.5 } 
		.s17 { fill: #006480 } 
		.s18 { fill: #0089a3 } 
	</style>
	<g id="OBJECTS">
		<g id="&lt;Group&gt;">
			<g id="&lt;Group&gt;">
				<path id="&lt;Path&gt;" class="s0" d="m908.3 819.1c0 15.6-79.6 28.2-177.7 28.2-98.2 0-177.7-12.6-177.7-28.2 0-15.6 79.5-28.2 177.7-28.2 98.1 0 177.7 12.6 177.7 28.2z"/>
				<g id="&lt;Group&gt;">
					<g id="&lt;Group&gt;">
						<g id="&lt;Group&gt;">
							<g id="&lt;Group&gt;">
								<path id="&lt;Path&gt;" class="s1" d="m857.4 451c0 0 4.5 1.6 8.2 4.6 3.7 3.1 5.2-1.4 2-4.1 0 0 2.1 1 4.3 3.1 2.2 2.2 4.6-0.3 3.7-2.3 0 0 1.6 1.3 3.1-0.1 1.5-1.4 0.2-3.8-0.3-4.5 0 0 4.4-1.8-1.8-7.5-6.2-5.7-15.3-10.8-29.5-8.9-9.8 1.3-12.6 7.7-11.8 11.8 1.5 7.4 12.2 12.2 22.1 7.9z"/>
								<path id="&lt;Path&gt;" class="s2" d="m867.6 451.5c-5.6-4.5-8.6-5.3-8.6-5.3"/>
								<path id="&lt;Path&gt;" class="s2" d="m875.6 452.3c-8.1-8.1-13.2-9.4-13.2-9.4"/>
								<path id="&lt;Path&gt;" class="s2" d="m878.4 447.7c-4.8-6-12.9-9.2-12.9-9.2"/>
								<g id="&lt;Group&gt;">
									<path id="&lt;Path&gt;" class="s3" d="m867.8 458.5l34.1-26.6-12.2-15.6-34.1 26.6z"/>
									<path id="&lt;Path&gt;" class="s4" d="m874.1 441.3c2.1 2.6 5.9 3.1 8.5 1 2.6-2 3.1-5.8 1.1-8.4-2.1-2.7-5.9-3.1-8.5-1.1-2.6 2.1-3.1 5.9-1.1 8.5z"/>
									<g id="&lt;Group&gt;">
										<path id="&lt;Path&gt;" class="s3" d="m861.9 458.8l43-4.9-2.2-19.6-43 4.8z"/>
										<path id="&lt;Path&gt;" class="s4" d="m876.3 447.4c0.4 3.3 3.4 5.7 6.7 5.4 3.3-0.4 5.7-3.4 5.3-6.7-0.3-3.4-3.3-5.7-6.7-5.4-3.3 0.4-5.7 3.4-5.3 6.7z"/>
									</g>
								</g>
								<path id="&lt;Path&gt;" class="s1" d="m846 448.8c-2.6 0-5.9-0.9-9-1.9-0.8-1.2-1.4-2.4-1.7-3.8-0.8-4.1 2-10.5 11.8-11.8 3.9-0.5 7.5-0.5 10.7-0.1l1.8 2.2c0 0 4.6 4.5 9.7 5.3 6.6 1 5.9 6-0.4 5.7-6.4-0.3-12.3-0.8-12.3-0.8 0 0-4.3 5.3-10.6 5.2z"/>
								<path id="&lt;Path&gt;" class="s5" d="m859.6 433.4c0 0 4.6 4.5 9.7 5.3 6.6 1 5.9 6-0.4 5.7-6.4-0.3-12.3-0.8-12.3-0.8 0 0-4.3 5.3-10.6 5.2"/>
							</g>
							<path id="&lt;Path&gt;" class="s6" d="m696.3 364.8c5.8-7.5 16.5-8.2 23.9-2.4 15.4 12 43.3 37.5 49.6 45.7 8.1 10.8 71.7 22.1 71.7 22.1l2 23.7c0 0-69.2 14.9-95.5-6.2-22.5-18-66.9-63.7-51.7-82.9z"/>
							<path id="&lt;Path&gt;" class="s7" d="m762.4 412.8l7.3-4 0.2 8.2"/>
						</g>
						<path id="&lt;Path&gt;" class="s7" d="m757.7 453.3c0 0 1.8-22.6-9.4-44.5"/>
					</g>
					<g id="&lt;Group&gt;">
						<g id="&lt;Group&gt;">
							<g id="&lt;Group&gt;">
								<g id="&lt;Group&gt;">
									<path id="&lt;Path&gt;" class="s1" d="m727.1 759.1c0.4 7.5 1.3 13.3 1.3 13.3l28.3-0.2 2.5-20.1 0.7-5.3-32.4-3.4q-0.3 2.1-0.4 4.3c-0.3 3.9-0.2 7.9 0 11.4z"/>
									<path id="&lt;Path&gt;" class="s8" d="m727.1 759.1c4.9-0.6 28-4 32.1-7l0.7-5.3-32.8 0.9c-0.3 3.9-0.2 7.9 0 11.4z"/>
								</g>
								<g id="&lt;Group&gt;">
									<path id="&lt;Path&gt;" class="s9" d="m759.7 759c-17.9-1-10.2 19.7-10.2 19.7l9-6.5z"/>
									<path id="&lt;Path&gt;" class="s9" d="m804.4 815.7v7.8l-84.8 0.5c0-3.7 0.1-7.4 0.4-11 1.6-21.7 7.5-40.6 7.5-40.6l31-0.2 7.5 12.9c3 5.2 8.2 8.8 14.1 9.7 17.2 2.4 22.2 12.4 23.7 17.6 0.5 2 0.6 3.3 0.6 3.3z"/>
									<g id="&lt;Group&gt;">
										<path id="&lt;Path&gt;" class="s10" d="m753.7 783.7c4.7-1.3 9.4-2.1 14.2-2.5q-0.3-0.8-0.5-1.7-7.5 4.5-15 9.1c-0.7 0.4-0.4 1.7 0.5 1.6q9.1-0.5 18-2-0.3-0.8-0.7-1.6-6.5 4.4-13.3 8.5c-1 0.6-0.1 2.1 0.9 1.5q6.8-4 13.3-8.5c0.9-0.6 0.3-1.8-0.7-1.6q-8.7 1.4-17.5 1.9 0.2 0.9 0.4 1.7 7.5-4.5 15-9c0.7-0.5 0.5-1.8-0.5-1.7q-7.4 0.6-14.6 2.5c-1.1 0.3-0.6 2.1 0.5 1.8z"/>
									</g>
									<path id="&lt;Path&gt;" class="s10" d="m804.4 815.7v7.8l-84.8 0.5c0-3.7 0.1-7.4 0.4-11l83.8-0.6c0.5 2 0.6 3.3 0.6 3.3z"/>
									<path id="&lt;Path&gt;" class="s11" d="m768.4 802.2c0 0 3.3-6 11.7-7.4"/>
								</g>
							</g>
							<path id="&lt;Path&gt;" class="s9" d="m707.8 517.2l45.2 0.2 11.6 236.6-44.3-3.6c0 0-8.8-99.3-8-122.6l-12.4-110.7z"/>
						</g>
						<g id="&lt;Group&gt;">
							<g id="&lt;Group&gt;">
								<g id="&lt;Group&gt;">
									<path id="&lt;Path&gt;" class="s1" d="m661.2 756.7c-0.2 7.5 0.3 13.3 0.3 13.3l28.2 2.2 4.2-19.8 1.1-5.2-32-6.1q-0.5 2-0.8 4.2c-0.6 3.9-0.8 7.8-1 11.4z"/>
									<path id="&lt;Path&gt;" class="s8" d="m661.2 756.7c5-0.3 28.3-1.6 32.7-4.3l1.1-5.2-32.8-1.9c-0.6 3.9-0.8 7.8-1 11.4z"/>
								</g>
								<g id="&lt;Group&gt;">
									<path id="&lt;Path&gt;" class="s9" d="m693.7 759.3c-17.7-2.5-11.7 18.8-11.7 18.8l9.5-5.7z"/>
									<path id="&lt;Path&gt;" class="s9" d="m733.5 819.6l-0.6 7.7-84.6-6.6c0.3-3.7 0.8-7.3 1.4-10.9 3.4-21.6 10.8-39.9 10.8-39.9l31 2.5 6.4 13.5c2.5 5.4 7.3 9.5 13.2 10.8 16.9 3.9 21.1 14.2 22.1 19.6 0.4 2 0.3 3.3 0.3 3.3z"/>
									<g id="&lt;Group&gt;">
										<path id="&lt;Path&gt;" class="s10" d="m685.7 783.4q7.1-1.3 14.3-1.3-0.1-0.8-0.3-1.7-7.8 3.9-15.7 7.7c-0.7 0.4-0.6 1.7 0.4 1.8q9 0.2 18.1-0.5-0.3-0.9-0.6-1.7-6.9 3.9-14 7.3c-1 0.5-0.2 2.2 0.8 1.6q7.1-3.4 14-7.3c0.9-0.5 0.5-1.8-0.6-1.7q-8.8 0.7-17.6 0.5 0.2 0.8 0.3 1.7 7.8-3.9 15.7-7.8c0.7-0.3 0.6-1.7-0.3-1.7q-7.5 0-14.8 1.3c-1.1 0.2-0.8 2 0.3 1.8z"/>
									</g>
									<path id="&lt;Path&gt;" class="s10" d="m733.5 819.6l-0.6 7.7-84.6-6.6c0.3-3.7 0.8-7.3 1.4-10.9l83.5 6.5c0.4 2 0.3 3.3 0.3 3.3z"/>
									<path id="&lt;Path&gt;" class="s11" d="m698.8 803.1c0 0 3.8-5.7 12.3-6.4"/>
								</g>
							</g>
							<path id="&lt;Path&gt;" class="s9" d="m662.4 514l45.1 4-8.5 236.8-43.8-7.4c0 0-0.3-99.6 2.4-122.8l-3-111.3z"/>
						</g>
						<path id="&lt;Path&gt;" class="s12" d="m705.5 574.1l1.2-33.3"/>
					</g>
					<g id="&lt;Group&gt;">
						<g id="&lt;Group&gt;">
							<path id="&lt;Path&gt;" class="s6" d="m686.6 357.6c-51.8-4.8-32.6 161.4-32.6 161.4l102.1-1.7c0 0 23.3-151.3-69.5-159.7z"/>
						</g>
						<path id="&lt;Path&gt;" class="s13" d="m676.1 365.1c0 0 43.9 26.9 36.5 6-0.8-2.3-2.4-4.3-4.5-5.5-5.2-2.9-16.7-7.2-32-0.5z"/>
					</g>
					<path id="&lt;Path&gt;" class="s14" d=""/>
					<g id="&lt;Group&gt;">
						<g id="&lt;Group&gt;">
							<g id="&lt;Group&gt;">
								<path id="&lt;Path&gt;" class="s1" d="m676.1 365.1c22.5 8.8 35.4 15.8 33.2 6.2l-0.3-3.6v-0.9l-0.9-10.2-0.8-9.7-0.4-4.7-24.5-5.1-2.7 12.3-1.2 5z"/>
							</g>
							<path id="&lt;Path&gt;" class="s8" d="m678.5 354.4c3 1.6 24.5 13.1 30.5 13.3v-0.9l-0.9-10.2-28.4-7.2z"/>
						</g>
						<g id="&lt;Group&gt;">
							<g id="&lt;Group&gt;">
								<path id="&lt;Path&gt;" class="s9" d="m650.4 313c-3.1-4.7-3.1-10.5-0.5-15.1-4-3.4-6.1-8.8-4.9-14.3 1.2-5.5 5.3-9.6 10.3-11-0.4-5.3 2-10.6 6.7-13.6 4.7-3 10.5-3 15.1-0.5 3.4-4 8.8-6.1 14.3-4.9 5.5 1.2 9.6 5.3 11 10.4 5.2-0.5 10.5 1.9 13.6 6.6 3 4.7 3 10.6 0.5 15.1 4 3.4 6 8.8 4.9 14.3-1.2 5.5-5.3 9.6-10.4 11.1 0.5 5.2-1.9 10.5-6.6 13.5-4.8 3.1-10.6 3.1-15.1 0.5-3.4 4-8.9 6.1-14.3 4.9-5.5-1.2-9.6-5.3-11.1-10.4-5.2 0.5-10.5-1.9-13.5-6.6z"/>
							</g>
							<path id="&lt;Path&gt;" class="s9" d="m725.3 311.1c0 0 4.6-27.1-27-33.9z"/>
							<g id="&lt;Group&gt;">
								<g id="&lt;Group&gt;">
									<g id="&lt;Group&gt;">
										<path id="&lt;Path&gt;" class="s9" d="m683.5 306.6c2.8 2.7-7.4 8.4-9.7 5.7-2.3-2.7 6.8-8.4 9.7-5.7z"/>
									</g>
								</g>
							</g>
							<g id="&lt;Group&gt;">
								<g id="&lt;Group&gt;">
									<path id="&lt;Path&gt;" class="s1" d="m660.5 312.7c0.3 2.8 0.7 5.7 1.3 8.7q0.2 1.3 0.5 2.6 0.3 1.2 0.6 2.5c2.1 7.9 4.7 14 7.8 18.7 10.2 15.6 24.4 15.3 33.2 13.1 8.7-2.1 21.5-8.5 23.2-27 0.6-5.6 0.1-12.2-1.8-20.2q-0.2-0.8-0.4-1.7-0.3-1.3-0.7-2.6-1-3.6-2.3-6.9-0.1-0.2-0.1-0.3 0 0 0 0c-6.2-15.7-17.4-25.7-37.5-20.8-19.4 4.8-24.9 18-23.8 33.9z"/>
								</g>
							</g>
							<g id="&lt;Group&gt;">
								<g id="&lt;Group&gt;">
									<path id="&lt;Path&gt;" class="s1" d="m668.7 323.9c-3.4-12.2-16.1-8.8-14.5 2.8 1.5 11.6 15.5 14.2 16.4 3.9z"/>
								</g>
								<g id="&lt;Group&gt;">
									<path id="&lt;Path&gt;" class="s15" d="m662.7 330.1c-0.9-3.7 1.8-4.6 1.9-4.6l0.8-0.2-0.6-0.6c0 0-0.9-0.8-2.1-1.6q-2.5-1.5-4-0.9-1.7 0.7-1.8 3.8l0.9 0.1q0.1-2.6 1.2-3c1.3-0.6 3.5 0.9 4.7 1.8-1.2 0.7-2.6 2.4-1.9 5.4z"/>
								</g>
							</g>
							<path id="&lt;Path&gt;" class="s9" d="m659.1 313.4l0.5 3.6c6 10.1 7.9 19.9 7.9 19.9 8.4 14.4 5.7-10.1 4-22.7-0.7-4.6 0.9-9.3 4.3-12.5 24.4-23.3 45.9-2.8 46.9-1.9-6.5-16.3-18-26.7-38.9-21.6-20.2 5-25.9 18.7-24.7 35.2z"/>
							<g id="&lt;Group&gt;">
								<path id="&lt;Path&gt;" class="s16" d="m707.1 315.6c0 0-0.9 15.8 8.6 16l-10 0.7"/>
								<g id="&lt;Group&gt;" style="opacity: .3">
									<g id="&lt;Group&gt;">
										<path id="&lt;Path&gt;" class="s8" d="m694.3 349.9c-0.1 1.1 2.1 2.3 5.1 2.6 2.9 0.4 5.4-0.3 5.5-1.4 0.1-1.1-2.1-2.3-5.1-2.6-2.9-0.4-5.4 0.3-5.5 1.4z"/>
									</g>
								</g>
								<g id="&lt;Group&gt;">
									<path id="&lt;Path&gt;" class="s9" d="m712.4 309c9.1 0.7 14.2-1.6 6.4-2.8-7.8-1.2-11.1 2.4-6.4 2.8z"/>
									<path id="&lt;Path&gt;" class="s9" d="m691.8 311.6c-8.2 3.8-13.8 3.5-6.9-0.3 6.8-3.9 11.2-1.7 6.9 0.3z"/>
								</g>
							</g>
							<g id="&lt;Group&gt;">
								<g id="&lt;Group&gt;">
									<g id="&lt;Group&gt;">
										<path id="&lt;Path&gt;" class="s9" d="m691.9 320.3c0 2 1.3 3.7 2.7 3.6 1.5 0 2.6-1.8 2.5-3.8 0-2.1-1.3-3.8-2.7-3.7-1.5 0.1-2.6 1.8-2.5 3.9z"/>
									</g>
								</g>
							</g>
							<g id="&lt;Group&gt;">
								<g id="&lt;Group&gt;">
									<g id="&lt;Group&gt;">
										<path id="&lt;Path&gt;" class="s9" d="m716.4 319.5c0.1 2 1.4 3.7 2.8 3.6 1.5 0 2.6-1.8 2.5-3.8-0.1-2.1-1.3-3.8-2.8-3.7-1.4 0.1-2.5 1.8-2.5 3.9z"/>
									</g>
								</g>
							</g>
							<path id="&lt;Path&gt;" class="s16" d="m693.6 337.2c4.4 4.9 12.1 4.6 18.6 1.5"/>
						</g>
					</g>
					<g id="&lt;Group&gt;">
						<g id="&lt;Group&gt;">
							<g id="&lt;Group&gt;">
								<path id="&lt;Path&gt;" class="s1" d="m657.3 500.3c0 0 1.4 5 1.1 10.2-0.2 5.1 4.7 3.6 5-1 0 0 0.5 2.5 0 5.8-0.5 3.4 3.2 3.8 4.4 1.8 0 0-0.1 2.2 2.1 2.6 2.2 0.4 3.4-2.2 3.7-3.2 0 0 4.5 2.7 5.5-6.4 0.9-9-0.5-20.3-11.3-31.5-7.5-7.7-14.8-6-17.9-2.7-5.5 6.1-2.8 18.6 7.4 24.4z"/>
								<path id="&lt;Path&gt;" class="s5" d="m663.4 509.5c0.3-7.7-1-10.9-1-10.9"/>
								<path id="&lt;Path&gt;" class="s5" d="m667.8 517.1c1.9-12.3-0.2-17.6-0.2-17.6"/>
								<path id="&lt;Path&gt;" class="s5" d="m673.6 516.5c2.2-8-0.2-17.2-0.2-17.2"/>
							</g>
							<path id="&lt;Path&gt;" class="s6" d="m658.1 475.2l-9 16.5c0 0-44.1 3.9-61.6-42-9.8-25.7 32.4-56.9 60.8-74.5 8.7-5.3 16.1-9.4 20.4-11.7q0.4-0.1 0.8-0.3c0.7-0.2 1.3-0.4 2-0.6q0.6-0.2 1.2-0.3l-1.3 49.5c-15.1 13.1-25 21.2-31.3 26.3-8.5 6.8-10.6 8-10.6 8 0 0 5 3.5 10.8 8.3 8.9 7.3 19.6 14 17.8 20.8z"/>
						</g>
						<g id="&lt;Group&gt;">
							<path id="&lt;Path&gt;" class="s7" d="m623.9 439.9l5.6 6.2-5.6 0.8"/>
							<g id="&lt;Group&gt;">
								<path id="&lt;Path&gt;" class="s7" d="m651.3 428.9c0 0 13.9-8.7 20.2-20.1"/>
								<path id="&lt;Path&gt;" class="s7" d="m666.2 416.1l8.8-1.3"/>
							</g>
						</g>
					</g>
				</g>
			</g>
			<g id="&lt;Group&gt;">
				<path id="&lt;Path&gt;" class="s17" d="m968.9 196.4h-181c-5 0-9.1 4.1-9.1 9v97.3c0 5 4.1 9.1 9.1 9.1h32.4v14.7l13.3-14.7h135.3c4.9 0 9-4.1 9-9.1v-97.3c0-4.9-4.1-9-9-9z"/>
				<g id="&lt;Group&gt;">
					<path id="&lt;Path&gt;" class="s4" d="m805.8 243.8l6.5 3.3-1.3-7.1 5.2-5.1-7.1-1-3.3-6.5-3.2 6.5-7.1 1 5.1 5.1-1.2 7.1z"/>
					<path id="&lt;Path&gt;" class="s4" d="m830.7 243.8l6.4 3.3-1.2-7.1 5.2-5.1-7.2-1-3.2-6.5-3.2 6.5-7.2 1 5.2 5.1-1.2 7.1z"/>
					<path id="&lt;Path&gt;" class="s4" d="m855.6 243.8l6.4 3.3-1.2-7.1 5.2-5.1-7.2-1-3.2-6.5-3.2 6.5-7.2 1 5.2 5.1-1.3 7.1z"/>
					<path id="&lt;Path&gt;" class="s4" d="m880.4 244.1l6.4 3.4-1.2-7.2 5.2-5.1-7.2-1-3.2-6.5-3.2 6.5-7.2 1 5.2 5.1-1.2 7.2z"/>
					<path id="&lt;Path&gt;" class="s4" d="m905.3 244.1l6.4 3.4-1.2-7.2 5.2-5.1-7.2-1-3.2-6.5-3.2 6.5-7.2 1 5.2 5.1-1.2 7.2z"/>
				</g>
				<g id="&lt;Group&gt;">
					<path id="&lt;Path&gt;" class="s18" d="m932.5 281.7h-134.9v-4.7h134.9z"/>
					<path id="&lt;Path&gt;" class="s18" d="m963.3 260.5h-165.7v-4.7h165.7z"/>
					<path id="&lt;Path&gt;" class="s18" d="m963.3 271.1h-165.7v-4.7h165.7z"/>
				</g>
			</g>
		</g>
	</g>
</svg>