<svg version="1.2" xmlns="http://www.w3.org/2000/svg" viewBox="0 0 1500 1000" width="1500" height="1000">
	<title>11377211_4741352-ai</title>
	<style>
		tspan { white-space:pre } 
		.s0 { opacity: .3;fill: #006480 } 
		.s1 { fill: #33324f } 
		.s2 { fill: #d5eef8 } 
		.s3 { fill: #0089a3 } 
		.s4 { fill: #00ac96 } 
		.s5 { fill: #ffffff } 
		.s6 { fill: #e03b5e } 
		.s7 { fill: #f1b5a8 } 
		.s8 { opacity: .3;fill: #ea3364 } 
		.s9 { fill: none;stroke: #d57983;stroke-miterlimit:10;stroke-width: 1.5 } 
		.s10 { fill: none;stroke: #ffffff;stroke-miterlimit:10;stroke-width: .5 } 
		.s11 { fill: #f3cf68 } 
		.s12 { fill: none;stroke: #dc7e83;stroke-miterlimit:10;stroke-width: 1.5 } 
		.s13 { fill: #992a45 } 
		.s14 { fill: #de3c5e } 
		.s15 { fill: #d99837 } 
		.s16 { fill: #f8f8f8 } 
		.s17 { fill: #423385 } 
		.s18 { fill: none;stroke: #c73154;stroke-miterlimit:10;stroke-width: 2 } 
		.s19 { fill: none;stroke: #00161e;stroke-miterlimit:10;stroke-width: 2 } 
	</style>
	<g id="OBJECTS">
		<g id="&lt;Group&gt;">
			<g id="&lt;Group&gt;">
				<path id="&lt;Path&gt;" class="s0" d="m1308.1 819.1c0 15.6-79.6 28.2-177.7 28.2-98.2 0-177.7-12.6-177.7-28.2 0-15.6 79.5-28.2 177.7-28.2 98.1 0 177.7 12.6 177.7 28.2z"/>
				<g id="&lt;Group&gt;">
					<g id="&lt;Group&gt;">
						<path id="&lt;Path&gt;" class="s1" d="m1392.2 809.7h-237.4c-17.4 0-31.5-14.1-31.5-31.5v-509.3c0-17.4 14.1-31.5 31.5-31.5h237.4c17.4 0 31.5 14.1 31.5 31.5v509.3c0 17.4-14.1 31.5-31.5 31.5z"/>
						<g id="&lt;Group&gt;">
							<path id="&lt;Path&gt;" class="s2" d="m1410 280.5v484.7c0 15.9-12.9 28.8-28.8 28.8h-215.6c-12.9 0-23.8-8.5-27.5-20.2-0.8-2.6-1.2-5.3-1.3-8.2q0-0.2 0-0.4v-484.7c0-15.9 12.9-28.8 28.8-28.8h215.6c15.9 0 28.8 12.9 28.8 28.8z"/>
							<g id="&lt;Group&gt;">
								<g id="&lt;Group&gt;">
									<path id="&lt;Path&gt;" class="s3" d="m1410 710v37.2l-273.2-24v-37.2z"/>
									<path id="&lt;Path&gt;" class="s4" d="m1136.8 449.1h84.8l35.8-78.9h-120.6z"/>
									<path id="&lt;Path&gt;" class="s4" d="m1410 600.4v39.4h-126.7v-39.4z"/>
								</g>
								<g id="&lt;Group&gt;">
									<path id="&lt;Path&gt;" class="s5" d="m1340.4 251.7l-109.5 235.1-9.6-4.5 107.5-230.6z"/>
									<path id="&lt;Path&gt;" class="s5" d="m1136.8 487.6v-10.5h92v10.5z"/>
									<path id="&lt;Path&gt;" class="s5" d="m1232.2 645.2h-10.6v-165.4h10.6z"/>
									<path id="&lt;Path&gt;" class="s5" d="m1410 669.5v10.5h-160.1v-10.5z"/>
									<path id="&lt;Path&gt;" class="s5" d="m1257.9 673.3l-8.2 6.6-28.1-35 8.2-6.5z"/>
									<path id="&lt;Path&gt;" class="s5" d="m1319.6 543.2h-5.6v-163.7h5.6z"/>
									<path id="&lt;Path&gt;" class="s5" d="m1410 413.6v5.6h-96v-5.6z"/>
									<path id="&lt;Path&gt;" class="s5" d="m1410 379.5v5.6h-96v-5.6z"/>
									<path id="&lt;Path&gt;" class="s5" d="m1287.8 341.7v8.2h-151v-8.2z"/>
									<g id="&lt;Group&gt;">
										<path id="&lt;Path&gt;" class="s5" d="m1309.3 765.6v8.2h-171.2c-0.8-2.6-1.2-5.3-1.3-8.2z"/>
										<path id="&lt;Path&gt;" class="s5" d="m1323.2 794.1h-8.2v-20.4h8.2z"/>
										<path id="&lt;Path&gt;" class="s5" d="m1323.2 773.7l-4.1 7.1-14-8.1 4.1-7.1z"/>
									</g>
									<path id="&lt;Path&gt;" class="s5" d="m1410 454.9v5.6h-96v-5.6z"/>
									<path id="&lt;Path&gt;" class="s5" d="m1224.2 576.1v5.6h-87.4v-5.6z"/>
									<path id="&lt;Path&gt;" class="s5" d="m1200.8 629.3v5.6h-64v-5.6z"/>
									<path id="&lt;Path&gt;" class="s5" d="m1200.8 634.9h-5.6v-54.1h5.6z"/>
									<path id="&lt;Path&gt;" class="s5" d="m1167.6 633h-5.6v-54.1h5.6z"/>
									<path id="&lt;Path&gt;" class="s5" d="m1410 496.3v5.6h-96v-5.6z"/>
									<path id="&lt;Path&gt;" class="s5" d="m1410 537.6v5.6h-96v-5.6z"/>
									<path id="&lt;Path&gt;" class="s5" d="m1319 455.4l-5.3 7.9-58.4-39 5.2-7.9z"/>
									<path id="&lt;Path&gt;" class="s5" d="m1410 304.9v9.6h-98.5v-9.6z"/>
									<path id="&lt;Path&gt;" class="s5" d="m1292.4 767.6h-10.5v-87.6h10.5z"/>
								</g>
							</g>
						</g>
						<path id="&lt;Path&gt;" class="s1" d="m1324.4 275.1h-99.1c-11.2 0-20.3-9.1-20.3-20.3v-7h139.7v7c0 11.2-9.1 20.3-20.3 20.3z"/>
					</g>
					<g id="&lt;Group&gt;">
						<path id="&lt;Path&gt;" class="s6" d="m1359.4 449.5c1.3-3.5 2.1-7.3 2.1-11.3 0-17.4-14.1-31.5-31.5-31.5-17.4 0-31.6 14.1-31.6 31.5 0 4.9 1.2 9.6 3.2 13.7l28.4 66.1 28.3-66.1q0.6-1.2 1.1-2.4z"/>
						<path id="&lt;Path&gt;" class="s5" d="m1349.6 438.3c0 10.8-8.8 19.6-19.6 19.6-10.9 0-19.6-8.8-19.6-19.6 0-10.9 8.7-19.6 19.6-19.6 10.8 0 19.6 8.7 19.6 19.6z"/>
					</g>
				</g>
				<g id="&lt;Group&gt;">
					<g id="&lt;Group&gt;">
						<g id="&lt;Group&gt;">
							<g id="&lt;Group&gt;">
								<path id="&lt;Path&gt;" class="s7" d="m1100.1 461.6l-1.5 5.6-1.6 6.3-9.9 37.6c-1.1 4.5-4.9 7.8-9.5 8.5l-72.7 6.4-3.3-14 67.2-16.9-0.2-13.7-0.1-14.9-0.1-3.6z"/>
								<path id="&lt;Path&gt;" class="s8" d="m1098.4 464.6l0.2 2.6-1.6 6.3c-14.6 7.6-24.6 8.1-28.4 7.9l-0.1-14.9z"/>
							</g>
							<g id="&lt;Group&gt;">
								<path id="&lt;Path&gt;" class="s7" d="m982.5 516c0 0-7.4 1.3-12.4 2.6-2.3 0.7-2 3.7 0.1 3.8-3.1 0.7-2.2 3.4-1.2 4.1 0.8 0.5 1.7 0.3 1.7 0.3-0.5 0.1-1.4 1.4-0.5 2.5 1.2 1.5 5.6 0.6 5.6 0.6 0 0-1.5 0.6-1.1 1.9 0.3 1.2 1.6 1.6 4.9 1.2 3.2-0.4 8.2-1.5 11.1-1.5 2.9 0 9.2 0.4 14.4-5.8 4.7-5.4 0.4-14.6-6.9-15.1-4.4-0.2-6.2-0.4-10.3 0.3-4.5 0.7-9.4 0.9-9.4 2.9-0.1 1.7 1.5 2 2.5 2.1 1.5 0.1 1.5 0.1 1.5 0.1z"/>
								<path id="&lt;Path&gt;" class="s9" d="m970.2 522.4l14.1-2.2"/>
								<path id="&lt;Path&gt;" class="s9" d="m970.7 526.8l14-2.2"/>
								<path id="&lt;Path&gt;" class="s9" d="m975.7 529.9l11.5-1.8"/>
								<path id="&lt;Path&gt;" class="s9" d="m982.5 516c0 0 5-0.8 5.6-1.4"/>
							</g>
						</g>
						<g id="&lt;Group&gt;">
							<g id="&lt;Group&gt;">
								<g id="&lt;Group&gt;">
									<g id="&lt;Group&gt;">
										<path id="&lt;Path&gt;" class="s7" d="m1075.2 771.2c-2.1 6.7-4.3 11.7-4.3 11.7l-25.6-6.8 2.4-18.7 0.6-4.9 30.2 4.4q-0.2 2-0.6 3.9c-0.7 3.6-1.7 7.2-2.7 10.4z"/>
										<path id="&lt;Path&gt;" class="s8" d="m1075.2 771.2c-4.3-1.7-24.4-10.1-27.5-13.8l0.6-4.9 29.6 8.3c-0.7 3.6-1.7 7.2-2.7 10.4z"/>
									</g>
									<g id="&lt;Group&gt;">
										<path id="&lt;Path&gt;" class="s1" d="m1045.7 763.6c16.4 3.2 4.6 20.2 4.6 20.2l-6.6-8z"/>
										<path id="&lt;Path&gt;" class="s1" d="m992 804.6l-1.8 7 76.7 20.2c0.9-3.4 1.6-6.8 2.2-10.1 3.6-20.1 2.7-38.6 2.7-38.6l-28.1-7.3-9.8 9.9c-4 4-9.5 6.1-15 5.5-16.2-1.7-23 6.1-25.6 10.5-0.9 1.7-1.3 2.9-1.3 2.9z"/>
										<g id="&lt;Group&gt;">
											<path id="&lt;Path&gt;" class="s5" d="m1045.4 787.3q-5.9-3.3-12.3-5.5 0.4-0.7 0.8-1.4 5.8 5.8 11.5 11.6c0.6 0.6 0 1.7-0.8 1.4q-8.1-2.6-15.9-6 0.5-0.7 1-1.3 4.9 5.5 10.2 10.8c0.7 0.8-0.5 1.9-1.2 1.2q-5.3-5.3-10.1-10.8c-0.7-0.8 0.1-1.7 1-1.4q7.5 3.4 15.4 5.9-0.4 0.7-0.8 1.4-5.7-5.8-11.5-11.7c-0.5-0.5 0-1.6 0.9-1.4q6.5 2.3 12.6 5.7c1 0.6 0.1 2-0.8 1.5z"/>
										</g>
										<path id="&lt;Path&gt;" class="s5" d="m992 804.6l-1.8 7 76.7 20.2c0.9-3.4 1.6-6.8 2.2-10.1l-75.8-20c-0.9 1.7-1.3 2.9-1.3 2.9z"/>
										<path id="&lt;Path&gt;" class="s10" d="m1027.8 800.6c0 0-1.7-6.1-8.9-9.4"/>
									</g>
								</g>
								<path id="&lt;Path&gt;" class="s1" d="m1148.8 556.4l-41-10.3-65.4 211.8 41 7c0 0 31-88 35.7-109.2l36.9-97.5z"/>
							</g>
							<g id="&lt;Group&gt;">
								<g id="&lt;Group&gt;">
									<g id="&lt;Group&gt;">
										<path id="&lt;Path&gt;" class="s7" d="m1230.9 756.8c2 7 3 12.6 3 12.6l-26.1 8.8-8.7-17.6-2.3-4.6 28.7-13.5q0.9 1.8 1.7 3.7c1.5 3.6 2.7 7.2 3.7 10.6z"/>
										<path id="&lt;Path&gt;" class="s8" d="m1230.9 756.8c-4.7 0.9-27 5.3-31.8 3.8l-2.3-4.6 30.4-9.8c1.5 3.6 2.7 7.2 3.7 10.6z"/>
									</g>
									<g id="&lt;Group&gt;">
										<path id="&lt;Path&gt;" class="s1" d="m1200.9 767.1c16.1-6.6 15.7 14.9 15.7 14.9l-10.4-3.2z"/>
										<path id="&lt;Path&gt;" class="s1" d="m1178 833.6l2.4 7.1 78.2-26.7c-1.2-3.4-2.5-6.7-3.9-10-8.5-19.5-19.9-34.9-19.9-34.9l-28.6 9.7-2.8 14.3c-1.1 5.7-4.6 10.8-9.8 13.4-15 7.8-16.5 18.6-16.1 23.9 0.1 2 0.5 3.2 0.5 3.2z"/>
										<g id="&lt;Group&gt;">
											<path id="&lt;Path&gt;" class="s5" d="m1214.3 787.9q-7 0.5-13.8 2.2-0.1-0.8-0.1-1.7 8.3 1.8 16.6 3.5c0.8 0.2 1 1.5 0.1 1.7q-8.5 2.4-17.2 3.9 0.1-0.8 0.1-1.7 7.5 2 15 3.6c1.1 0.2 0.8 1.9-0.3 1.7q-7.6-1.6-15-3.6c-1-0.2-0.9-1.5 0.1-1.7q8.5-1.5 16.8-3.8 0 0.8 0.1 1.7-8.3-1.8-16.7-3.5c-0.8-0.2-1-1.5-0.1-1.7q7-1.8 14.3-2.4c1.1-0.1 1.2 1.7 0.1 1.8z"/>
										</g>
										<path id="&lt;Path&gt;" class="s5" d="m1178 833.6l2.4 7.1 78.2-26.7c-1.2-3.4-2.5-6.7-3.9-10l-77.2 26.4c0.1 2 0.5 3.2 0.5 3.2z"/>
										<path id="&lt;Path&gt;" class="s10" d="m1206.7 809.6c0 0-5-4.4-13.1-3.1"/>
									</g>
								</g>
								<path id="&lt;Path&gt;" class="s1" d="m1135.3 542.5l-1.5 77.9c-0.3 13.7 2.8 27.2 8.9 39.5l50 99.7 38.9-12.3c0 0-40.3-88.6-49.1-113.8-1-3-2.1-6-1.8-9.1 2.3-20.6 15.8-84.9 11.8-89.7z"/>
							</g>
						</g>
						<g id="&lt;Group&gt;">
							<path id="&lt;Path&gt;" class="s6" d="m1093.7 498l12 69.4c0 0-23.9 3.4-29.6-9.2l12.6-60.2h3.1"/>
							<g id="&lt;Group&gt;">
								<path id="&lt;Path&gt;" class="s6" d="m1114.5 399.5c-46.8-4.6-44 52.5-47.7 67.6 0 0 26.9 13.1 41 6.5 14.2-6.6 6.7-74.1 6.7-74.1z"/>
							</g>
						</g>
						<g id="&lt;Group&gt;">
							<g id="&lt;Group&gt;">
								<path id="&lt;Path&gt;" class="s5" d="m1102.5 562.4l84.7-22.6c0 0-4.8-124.4-39.6-149.1q-2.2-1.6-4.5-2.5c-6.7-2.9-14.4-2.3-23.3 3.2-69.3 42.6-17.3 171-17.3 171z"/>
							</g>
							<path id="&lt;Path&gt;" class="s11" d="m1135.4 448.8l-19.8 1.3-0.2-3.7 19.8-1.4z"/>
						</g>
						<g id="&lt;Group&gt;">
							<g id="&lt;Group&gt;">
								<g id="&lt;Group&gt;">
									<path id="&lt;Path&gt;" class="s7" d="m1141.7 391.9c-22.9 12.1-35.8 21-34.7 10.8l-0.1-3.9v-1l-0.4-10.7-0.3-10.3-0.2-5 25.5-8.4 4.5 12.5 1.9 5.2z"/>
								</g>
								<path id="&lt;Path&gt;" class="s8" d="m1137.9 381.1c-3 2-24.6 16.8-31 17.7v-1l-0.4-10.7 29.5-11.2z"/>
							</g>
							<g id="&lt;Group&gt;">
								<g id="&lt;Group&gt;">
									<path id="&lt;Path&gt;" class="s1" d="m1138.8 338.1c0 0 4.4-29.5 12.5-24.4 8.1 5.2-10.4 25.6-10.4 25.6 0 0 8.6-12.1 11.6-9.2 2.9 2.8-6.3 13.6-12.3 14.2-6.1 0.7-1.4-6.2-1.4-6.2z"/>
									<path id="&lt;Path&gt;" class="s1" d="m1080.2 344.6c0 0-9.3-25.8 21.1-38z"/>
									<g id="&lt;Group&gt;">
										<g id="&lt;Group&gt;">
											<g id="&lt;Group&gt;">
												<path id="&lt;Path&gt;" class="s1" d="m1121.4 333c-2.4 3.1 8.8 6.9 10.6 3.9 1.9-3.1-8.2-7.1-10.6-3.9z"/>
											</g>
										</g>
									</g>
									<g id="&lt;Group&gt;">
										<g id="&lt;Group&gt;">
											<path id="&lt;Path&gt;" class="s7" d="m1145.4 335c0.3 2.8 0.4 5.8 0.3 8.8q-0.1 1.3-0.1 2.7-0.1 1.2-0.2 2.5c-0.7 8.1-2.3 14.6-4.5 19.7-7.5 17.2-21.9 19.3-31 18.7-9.1-0.6-23.1-4.6-28.1-22.6-1.5-5.4-2.1-12-1.6-20.2q0-0.8 0.1-1.7 0.1-1.4 0.2-2.7 0.5-3.7 1.2-7.2 0-0.1 0-0.3 0 0 0 0c3.5-16.5 12.9-28.3 34-26.9 20.3 1.3 28.1 13.4 29.7 29.2z"/>
										</g>
									</g>
									<g id="&lt;Group&gt;">
										<g id="&lt;Group&gt;">
											<path id="&lt;Path&gt;" class="s7" d="m1139.2 347.4c1.3-12.5 14.6-11.4 15.1 0.3 0.4 11.7-13.2 16.7-15.9 6.7z"/>
										</g>
										<g id="&lt;Group&gt;">
											<path id="&lt;Path&gt;" class="s12" d="m1146.3 352.5c0.3-3.8-2.6-4.2-2.8-4.2l-0.8-0.1 0.5-0.6c0-0.1 0.8-1 1.9-1.9q2.2-2 3.8-1.7 1.8 0.4 2.5 3.5l-0.9 0.2q-0.5-2.5-1.8-2.8c-1.3-0.3-3.3 1.5-4.3 2.7 1.3 0.5 3 1.9 2.8 5z"/>
										</g>
									</g>
									<path id="&lt;Path&gt;" class="s12" d="m1099.2 345.9c0 0 3.7 15.4-5.8 17.2l10.1-1"/>
									<g id="&lt;Group&gt;">
										<path id="&lt;Path&gt;" class="s1" d="m1093.1 341.6c-8.5 3.5-14.2 3-7.1-0.6 7.2-3.6 11.5-1.2 7.1 0.6z"/>
										<path id="&lt;Path&gt;" class="s1" d="m1111.2 340.5c8.9 2.3 14.5 1 6.9-1.6-7.6-2.6-11.5 0.3-6.9 1.6z"/>
									</g>
									<path id="&lt;Path&gt;" class="s1" d="m1147 335.5l0.1 3.6c-4.3 10.9-4.5 20.9-4.5 20.9-5.9 15.7-7.5-8.9-7.9-21.7-0.1-4.6-2.5-8.9-6.5-11.5-28.5-18.7-46.5 5.2-47.3 6.3 3.6-17.2 13.4-29.4 35.2-28 21.1 1.4 29.2 13.9 30.9 30.4z"/>
									<path id="&lt;Path&gt;" class="s1" d="m1116.3 326.4c0 0 1.9 18 22.3 10.1l-9.4-15.3z"/>
									<g id="&lt;Group&gt;">
										<g id="&lt;Group&gt;">
											<g id="&lt;Group&gt;">
												<g id="&lt;Group&gt;">
													<path id="&lt;Path&gt;" class="s1" d="m1108.5 351.1c0.1 2.1 1.4 3.8 2.9 3.8 1.5-0.1 2.6-1.9 2.5-4 0-2.1-1.3-3.8-2.8-3.7-1.5 0-2.6 1.8-2.6 3.9z"/>
												</g>
											</g>
										</g>
										<g id="&lt;Group&gt;">
											<g id="&lt;Group&gt;">
												<g id="&lt;Group&gt;">
													<path id="&lt;Path&gt;" class="s1" d="m1084.6 352.1c0.1 2.1 1.3 3.8 2.8 3.7 1.5-0.1 2.7-1.8 2.6-4-0.1-2.1-1.4-3.8-2.9-3.7-1.5 0.1-2.6 1.8-2.5 4z"/>
												</g>
											</g>
										</g>
									</g>
									<g id="&lt;Group&gt;">
										<path id="&lt;Path&gt;" class="s13" d="m1097.9 370.9c0.9 1.4 2.1 2.4 3.5 3.2 2 1 4.4 1.2 6.7 0.5 2.1-0.6 3.7-1.9 4.8-3.6 1-1.5 1.6-3.3 1.5-5.1z"/>
										<path id="&lt;Path&gt;" class="s14" d="m1101.4 374.1c2 1 4.4 1.2 6.7 0.5 2.1-0.6 3.7-1.9 4.8-3.6-1.5-1.3-4-1.8-6.6-1-2.4 0.7-4.2 2.3-4.9 4.1z"/>
									</g>
									<path id="&lt;Path&gt;" class="s1" d="m1122.3 324.6c-18.2 19.2-42.9 30.6-54.7 11.7-11.8-18.9 60.7-59.2 73.8-16.5z"/>
									<g id="&lt;Group&gt;">
										<path id="&lt;Path&gt;" class="s5" d="m1143.5 320.3l-68.9 4.5c-1.3-19 13.1-35.4 32.1-36.7 15-1 28.3 7.7 34 20.7q1.3 2.9 2 6.1 0.6 2.6 0.8 5.4z"/>
										<path id="&lt;Path&gt;" class="s6" d="m1081.2 312.8c0 0-21.4 7.6-20.9 15.2 0.5 7.6 56 8 73.8-7.2 0 0-22.8-11.1-52.9-8z"/>
										<path id="&lt;Path&gt;" class="s1" d="m1142.7 314.9l-6.9 0.5-0.4-6.3 5.3-0.3q1.3 2.9 2 6.1z"/>
									</g>
								</g>
								<g id="&lt;Group&gt;">
									<g id="&lt;Group&gt;">
										<path id="&lt;Path&gt;" class="s8" d="m1115.7 377.6c0.3 1-1.7 2.6-4.6 3.5-2.9 0.9-5.5 0.7-5.8-0.3-0.4-1.1 1.7-2.7 4.6-3.6 2.8-0.9 5.4-0.7 5.8 0.4z"/>
									</g>
								</g>
							</g>
						</g>
						<g id="&lt;Group&gt;">
							<path id="&lt;Path&gt;" class="s11" d="m987.1 561.8l106.6-2.6-2.8-92.2-106.5 2.6z"/>
							<path id="&lt;Path&gt;" class="s15" d="m967.4 562.3l39.5-1-2.8-92.1-39.5 0.9z"/>
							<path id="&lt;Path&gt;" class="s16" d="m1038.3 491.3l16.6-0.4-0.7-23-16.5 0.4z"/>
							<path id="&lt;Path&gt;" class="s11" d="m977.9 493.4l16.5-0.4-0.7-23.6-16.5 0.4z"/>
							<path id="&lt;Path&gt;" class="s17" d="m1016.1 554.7l19.2-0.6-0.4-10.7-19.1 0.7z"/>
						</g>
						<g id="&lt;Group&gt;">
							<g id="&lt;Group&gt;">
								<path id="&lt;Path&gt;" class="s7" d="m1166.1 463.2l-1.5 5.6-1.6 6.3-9.9 37.6c-1.1 4.5-4.9 7.8-9.5 8.5l-72.7 6.4-3.3-14 67.2-16.9-0.2-13.7-0.1-15-0.1-3.5z"/>
								<path id="&lt;Path&gt;" class="s8" d="m1164.4 466.2l0.2 2.6-1.6 6.3c-14.6 7.6-24.6 8.1-28.4 7.9l-0.1-15z"/>
							</g>
							<g id="&lt;Group&gt;">
								<path id="&lt;Path&gt;" class="s7" d="m1048.5 517.5c0 0-7.4 1.4-12.4 2.7-2.3 0.6-2 3.7 0.1 3.8-3.1 0.7-2.2 3.4-1.2 4.1 0.8 0.5 1.7 0.3 1.7 0.3-0.5 0.1-1.4 1.4-0.5 2.5 1.2 1.4 5.6 0.5 5.6 0.5 0 0-1.4 0.6-1.1 2 0.4 1.1 1.6 1.5 4.9 1.2 3.2-0.4 8.2-1.5 11.1-1.5 2.9 0 9.2 0.4 14.4-5.8 4.7-5.5 0.4-14.7-6.9-15.1-4.4-0.3-6.2-0.4-10.3 0.2-4.5 0.7-9.4 1-9.4 2.9-0.1 1.8 1.5 2.1 2.5 2.1 1.5 0.1 1.5 0.1 1.5 0.1z"/>
								<path id="&lt;Path&gt;" class="s9" d="m1036.2 524l14.2-2.2"/>
								<path id="&lt;Path&gt;" class="s9" d="m1036.7 528.4l14-2.3"/>
								<path id="&lt;Path&gt;" class="s9" d="m1041.7 531.5l11.5-1.8"/>
								<path id="&lt;Path&gt;" class="s9" d="m1048.5 517.5c0 0 5-0.7 5.6-1.3"/>
							</g>
						</g>
						<path id="&lt;Path&gt;" class="s6" d="m1111.7 406.9c0 0-8 132.2 17 159l69.6-9.8c0 0-10.8-146.1-58.7-170.2 0 0-7.2 14.8-27.9 21z"/>
						<path id="&lt;Path&gt;" class="s1" d=""/>
						<path id="&lt;Path&gt;" class="s6" d="m1142.8 388.4l2.8 3.4 2-1.1q-2.2-1.6-4.5-2.5z"/>
						<g id="&lt;Group&gt;">
							<path id="&lt;Path&gt;" class="s6" d="m1111.9 498l18.4-4.2c0 0-15.2-69.3 0.6-97.4l5.1-5.2c2.7-1.7 5.9-2.3 9.1-1.9 1.7 0.3 3.4 0.9 5 1.8 8.2 4.7 18.7 14.7 21 35v0.1c0.9 8.7 0.4 19.3-2.4 32.3-11.7 53-5 68.1-53.2 70.8q0 0-0.1 0c-10 0.6-22.6 0.6-38.1 0.4l-1.2-23.5z"/>
							<g id="&lt;Group&gt;">
								<path id="&lt;Path&gt;" class="s18" d="m1171.1 426.1c1 8.8 0.5 19.4-2.4 32.4-11.7 53.1-4.9 68.1-53.2 70.8"/>
								<path id="&lt;Path&gt;" class="s18" d="m1111.9 498l18.5-4.2c0 0-7.8-35.4-6.5-65.9"/>
								<path id="&lt;Path&gt;" class="s18" d="m1119 437.3l4.9 6.2"/>
							</g>
						</g>
						<g id="&lt;Group&gt;">
							<path id="&lt;Path&gt;" class="s18" d="m1085.9 427.9c0 0-8.1 27.7-7.8 39.4"/>
							<path id="&lt;Path&gt;" class="s18" d="m1081.7 430.7l1.8 5.7"/>
						</g>
					</g>
					<path id="&lt;Path&gt;" class="s19" d="m1133.8 616.7l1.7-29.1"/>
				</g>
			</g>
		</g>
	</g>
</svg>